<svg width="287" height="287" viewBox="0 0 287 287" fill="none" xmlns="http://www.w3.org/2000/svg">
<path fill-rule="evenodd" clip-rule="evenodd" d="M143.622 271.604C143.622 271.604 143.622 271.604 143.622 271.604C73.1383 271.604 16 214.609 16 144.302C16 73.9951 73.1383 17 143.622 17C214.106 17 271.244 73.9951 271.244 144.302C271.244 144.302 271.244 144.302 271.244 144.302H223.372C223.372 144.302 223.372 144.302 223.372 144.302C223.372 100.367 187.667 64.7512 143.622 64.7512C99.5768 64.7512 63.8712 100.367 63.8712 144.302C63.8712 188.237 99.5768 223.853 143.622 223.853C143.622 223.853 143.622 223.853 143.622 223.853V271.604Z" fill="white"/>
<rect width="47.8114" height="136.696" transform="matrix(0.707994 -0.706219 0.707994 0.706219 140.626 175.078)" fill="white"/>
</svg>
